<svg id="Warstwa_1" data-name="Warstwa 1" xmlns="http://www.w3.org/2000/svg" xmlns:xlink="http://www.w3.org/1999/xlink" viewBox="0 0 24 24"><defs><style>.cls-1{fill:#d91c5c;}.cls-2{opacity:0.5;fill:url(#Gradient_bez_nazwy_62);}.cls-3,.cls-4{opacity:0.75;}.cls-3{fill:url(#Gradient_bez_nazwy_101);}.cls-4{fill:url(#Gradient_bez_nazwy_130);}</style><linearGradient id="Gradient_bez_nazwy_62" x1="7.97463" y1="5.20555" x2="16.67908" y2="20.28211" gradientUnits="userSpaceOnUse"><stop offset="0" stop-color="#faaf40"/><stop offset="1" stop-color="#ec297b"/></linearGradient><linearGradient id="Gradient_bez_nazwy_101" x1="12" y1="6.17761" x2="12" y2="20.26368" gradientUnits="userSpaceOnUse"><stop offset="0" stop-color="#f9ec31"/><stop offset="1" stop-color="#fff" stop-opacity="0.1"/></linearGradient><linearGradient id="Gradient_bez_nazwy_130" x1="12" y1="12" x2="12" y2="23.5" gradientUnits="userSpaceOnUse"><stop offset="0" stop-color="#ffdd15" stop-opacity="0.1"/><stop offset="1" stop-color="#faaf40"/></linearGradient></defs><title>fire</title><path class="cls-1" d="M4.48786,10.3689A3.31424,3.31424,0,0,0,4.61225,9.967a3.29465,3.29465,0,0,0-1.3995-3.53526A4.96857,4.96857,0,0,1,8.27,6.81118a8.75316,8.75316,0,0,0,1.17017-2.675A8.73605,8.73605,0,0,0,9.57164.5a13.14679,13.14679,0,0,1,5.83607,4.31253,9.03739,9.03739,0,0,1,5.37954-.23279A5.98573,5.98573,0,0,0,19.188,10.28245a8.63658,8.63658,0,0,1-6.33018,13.1591,8.62614,8.62614,0,0,1-9.61617-8.10323c-.00856-.15763-.01363-.31617-.01363-.47594A8.60062,8.60062,0,0,1,4.48786,10.3689Z"/><path class="cls-2" d="M19,14.90134a6.936,6.936,0,0,0-1.06509-3.71023l-.13881-.22118-.063-.25347A7.66245,7.66245,0,0,1,18.076,5.97312a7.31743,7.31743,0,0,0-1.977.41852l-1.12522.40685-.72957-.94835a11.54661,11.54661,0,0,0-2.83529-2.62738,10.46778,10.46778,0,0,1-.24564,1.34975A10.38287,10.38287,0,0,1,9.77434,7.74715L8.84919,9.1604l-1.384-.96866a3.33365,3.33365,0,0,0-1.24709-.53622A4.95842,4.95842,0,0,1,6.33839,10.391a5.03792,5.03792,0,0,1-.18568.59971l-.05389.14154-.079.12938A6.959,6.959,0,0,0,5,14.90134c0,.13017.00431.25955.01119.388A6.99672,6.99672,0,0,0,12,21.90135a7.09592,7.09592,0,0,0,.806-.04782,6.89776,6.89776,0,0,0,3.01153-1.08636A6.984,6.984,0,0,0,19,14.90134Z"/><path class="cls-3" d="M14.40541,8.74534,12.94627,6.84865q-.26868-.349-.56453-.671A12.01964,12.01964,0,0,1,11.14457,8.644L9.29393,11.4706l-1.31361-.9194c-.01567.07517-.0323.15033-.05054.22533a6.746,6.746,0,0,1-.246.79514l-.10907.28547-.15736.258a5.245,5.245,0,0,0-.25716.4737,5.30326,5.30326,0,0,0-.52263,2.31249c0,.10012.0032.19959.00864.29842a5.35889,5.35889,0,0,0,5.3536,5.064,5.4605,5.4605,0,0,0,.61922-.0371,5.27728,5.27728,0,0,0,2.30354-.8308,5.34821,5.34821,0,0,0,1.62451-7.33554l-.277-.44139-.12634-.50744a9.27755,9.27755,0,0,1-.27411-2.23829q0-.33488.02335-.6656Z"/><ellipse class="cls-4" cx="12" cy="17.75" rx="7.64198" ry="5.75"/></svg>